<?xml version="1.0" encoding="UTF-8"?>
<svg version="1.1" xmlns="http://www.w3.org/2000/svg" width="500" height="500">
<path d="M0 0 C165 0 330 0 500 0 C500 165 500 330 500 500 C335 500 170 500 0 500 C0 335 0 170 0 0 Z " fill="#FEFEFE" transform="translate(0,0)"/>
<path d="M0 0 C1.81259643 1.84687721 3.12899648 3.75624032 4.5234375 5.93359375 C6.07967931 8.11150887 7.5407283 9.32601472 9.75 10.8125 C13 13 13 13 15 16 C15.30094221 20.13795536 15.51860496 23.55348795 13 27 C12.01 27.33 11.02 27.66 10 28 C9.67 28.66 9.34 29.32 9 30 C4.96558705 32.13586568 1.51551792 32.3284013 -3 32 C-5.21484375 30.984375 -5.21484375 30.984375 -7 30 C-6.855625 29.39671875 -6.71125 28.7934375 -6.5625 28.171875 C-6.2840625 26.97304687 -6.2840625 26.97304687 -6 25.75 C-5.7215625 24.56664062 -5.7215625 24.56664062 -5.4375 23.359375 C-4.87845172 20.74443998 -4.87845172 20.74443998 -5 17 C-13.98063326 28.77025776 -23.39969348 41.89951325 -27.6015625 56.23046875 C-27.86533691 57.12531982 -28.12911133 58.0201709 -28.40087891 58.94213867 C-28.59858887 59.62123291 -28.79629883 60.30032715 -29 61 C-28.49251221 60.67314209 -27.98502441 60.34628418 -27.4621582 60.00952148 C3.30350917 40.24623782 3.30350917 40.24623782 12 42 C15.0625 43 15.0625 43 17 44 C17 44.66 17 45.32 17 46 C18.65 46 20.3 46 22 46 C22.0928125 44.2365625 22.0928125 44.2365625 22.1875 42.4375 C22.69251264 37.84115309 23.93175059 33.5640276 25.375 29.1875 C25.58406982 28.54159912 25.79313965 27.89569824 26.00854492 27.23022461 C27.20897374 23.71321092 28.40554565 20.70227583 31 18 C33.6875 17.75 33.6875 17.75 36 18 C36.31904297 16.83597656 36.31904297 16.83597656 36.64453125 15.6484375 C38 13 38 13 40.57421875 11.6015625 C50.68152467 8.43114032 57.55088675 9.21929415 67 14 C71.23568106 17.4245932 74.45346614 21.44160365 75.30395508 26.97900391 C75.43981758 29.20346447 75.46767415 31.39659185 75.4375 33.625 C75.42847656 34.42333252 75.41945313 35.22166504 75.41015625 36.04418945 C75.02497421 49.30488376 68.66337426 64.41602996 59.5 74.1875 C55.05093338 78.11076784 50.51260319 80.62776249 44.625 81.5 C35.10047099 80.18627186 26.12406195 75.4371041 20.2578125 67.703125 C18.6932554 64.3407849 18.70065173 61.87849278 18.8125 58.1875 C18.85310547 56.44533203 18.85310547 56.44533203 18.89453125 54.66796875 C18.92933594 53.78753906 18.96414063 52.90710938 19 52 C16.40501023 53.09879093 16.40501023 53.09879093 14 55 C13.50616944 57.63124181 13.50616944 57.63124181 13.875 60.5625 C14.38912992 74.85531173 6.69180185 86.80131504 -2.84765625 97.05859375 C-9.56560717 103.1181611 -16.36276441 106.32375785 -25.3671875 106.21875 C-31.75258813 105.68821226 -36.19456944 103.13800964 -41 99 C-41.66128906 98.71125 -42.32257813 98.4225 -43.00390625 98.125 C-45.45141364 96.74558292 -46.03332589 95.59226121 -47.1875 93.0625 C-47.51105469 92.37285156 -47.83460938 91.68320312 -48.16796875 90.97265625 C-52.54574022 80.59343282 -49.86992615 66.72493128 -48 56 C-47.77763672 54.63681641 -47.77763672 54.63681641 -47.55078125 53.24609375 C-45.65017338 44.41702884 -40.72064667 36.78650074 -36.20825195 29.07299805 C-35.0717837 27.1231593 -33.96375226 25.1595335 -32.859375 23.19140625 C-31.40579844 20.69650698 -29.96104154 18.45170432 -28.1875 16.1875 C-26.45104974 13.96484367 -24.86118511 11.77576057 -23.375 9.375 C-20.0653959 4.10414903 -17.56306314 0.72489623 -11.33203125 -0.71875 C-7.29995998 -1.20502995 -3.83231844 -1.56346957 0 0 Z " fill="#FE5B5B" transform="translate(244,228)"/>
<path d="M0 0 C8.05921768 1.1488672 16.33462439 3.10146672 22.08789062 9.22070312 C25.42881682 14.07681954 24.95274876 19.44150135 25.125 25.1875 C25.16359131 26.44385254 25.20218262 27.70020508 25.24194336 28.99462891 C25.36369652 39.71853688 23.68816401 48.39580879 19 58 C18.54028809 58.96147949 18.54028809 58.96147949 18.07128906 59.94238281 C11.73913922 72.82412365 3.06203916 83.27700203 -10.0625 89.4375 C-16.39018798 90.64918493 -22.4681595 89.20569 -28 86 C-37.27781461 79.67700093 -37.27781461 79.67700093 -39 75 C-41.8503706 58.77481349 -32.86938218 41.35697375 -25.01025391 27.75048828 C-23.67583748 25.43831675 -22.40302708 23.09369316 -21.125 20.75 C-20.74085938 20.08355469 -20.35671875 19.41710937 -19.9609375 18.73046875 C-18.87086727 16.83839588 -18.87086727 16.83839588 -17.75 14.0625 C-14.94455254 10.75607978 -11.15607596 10.58376748 -7 10 C-7.061875 9.21625 -7.12375 8.4325 -7.1875 7.625 C-7.0946875 6.325625 -7.0946875 6.325625 -7 5 C-4 3 -4 3 -1 3 C-0.67 2.01 -0.34 1.02 0 0 Z " fill="#070707" transform="translate(243,130)"/>
<path d="M0 0 C0.680625 0.23203125 1.36125 0.4640625 2.0625 0.703125 C2.7225 0.89390625 3.3825 1.0846875 4.0625 1.28125 C8.69049196 2.83596605 11.66424962 4.20640553 14.0625 8.703125 C14.81942005 16.07889034 12.54682872 21.86976086 9.9375 28.703125 C9.52588623 29.81163818 9.11427246 30.92015137 8.69018555 32.06225586 C7.49260266 35.28039403 6.27893991 38.49207758 5.0625 41.703125 C4.48694242 43.24559484 3.91254053 44.78849695 3.33984375 46.33203125 C1.40132368 51.54270782 -0.55425463 56.74502338 -2.6015625 61.9140625 C-5.32489617 68.86023657 -7.5413168 75.17564418 -7.9375 82.703125 C-8.2675 83.033125 -8.5975 83.363125 -8.9375 83.703125 C-14.33760747 83.38547162 -17.76916295 82.17673921 -21.9375 78.703125 C-22.5625 76.578125 -22.5625 76.578125 -22.9375 74.703125 C-24.92504769 73.56865064 -24.92504769 73.56865064 -26.9375 72.703125 C-26.51531184 71.0532975 -26.07425575 69.40828835 -25.625 67.765625 C-25.38136719 66.84910156 -25.13773438 65.93257813 -24.88671875 64.98828125 C-24.57347656 64.23417969 -24.26023438 63.48007813 -23.9375 62.703125 C-22.9475 62.373125 -21.9575 62.043125 -20.9375 61.703125 C-21.2675 61.373125 -21.5975 61.043125 -21.9375 60.703125 C-24.00016324 61.49436624 -26.06262379 62.28613591 -28.125 63.078125 C-29.84783203 63.73941406 -29.84783203 63.73941406 -31.60546875 64.4140625 C-32.70503906 64.83945313 -33.80460937 65.26484375 -34.9375 65.703125 C-36.29875 66.06083984 -36.29875 66.06083984 -37.6875 66.42578125 C-41.06421124 68.34276836 -41.70351672 71.23095157 -42.75 74.765625 C-42.96301758 75.44012695 -43.17603516 76.11462891 -43.39550781 76.80957031 C-44.94561841 82.0023164 -45.29493868 86.34154475 -44.9375 91.703125 C-45.2675 92.693125 -45.5975 93.683125 -45.9375 94.703125 C-49.32126338 93.50243477 -52.50433364 91.97809162 -55.6875 90.328125 C-56.46609375 89.92851562 -57.2446875 89.52890625 -58.046875 89.1171875 C-60.36282984 87.3850064 -60.2677539 86.41451646 -60.9375 83.703125 C-62.9212767 82.41875766 -62.9212767 82.41875766 -64.9375 81.703125 C-64.48386829 80.11843823 -64.02438548 78.53542576 -63.5625 76.953125 C-63.30726563 76.07140625 -63.05203125 75.1896875 -62.7890625 74.28125 C-62.0165066 71.94231928 -61.10124324 69.86869938 -59.9375 67.703125 C-59.2775 67.703125 -58.6175 67.703125 -57.9375 67.703125 C-57.9375 69.683125 -57.9375 71.663125 -57.9375 73.703125 C-56.9475 71.063125 -55.9575 68.423125 -54.9375 65.703125 C-56.2575 65.703125 -57.5775 65.703125 -58.9375 65.703125 C-59.2675 62.403125 -59.5975 59.103125 -59.9375 55.703125 C-58.57625 55.72375 -57.215 55.744375 -55.8125 55.765625 C-53.21677472 55.36069039 -53.21677472 55.36069039 -50.9375 53.703125 C-48.54205028 48.93884167 -47.10352542 44.01567148 -45.61816406 38.90771484 C-44.63331432 35.71790382 -43.37544212 32.71026901 -42.0625 29.640625 C-41.65257812 28.68027344 -41.24265625 27.71992188 -40.8203125 26.73046875 C-40.52898437 26.06144531 -40.23765625 25.39242187 -39.9375 24.703125 C-41.9393276 26.7049526 -42.84218232 29.72827986 -44 32.265625 C-44.82177734 34.06193359 -44.82177734 34.06193359 -45.66015625 35.89453125 C-46.08167969 36.82136719 -46.50320312 37.74820313 -46.9375 38.703125 C-49.77533203 33.02746094 -44.91191184 23.03427961 -43.06445312 17.390625 C-42.53754883 15.8128125 -42.53754883 15.8128125 -42 14.203125 C-41.65259766 13.1203125 -41.30519531 12.0375 -40.94726562 10.921875 C-40.60501953 9.890625 -40.26277344 8.859375 -39.91015625 7.796875 C-39.60343994 6.86552734 -39.29672363 5.93417969 -38.98071289 4.97460938 C-37.9375 2.703125 -37.9375 2.703125 -34.9375 0.703125 C-29.77835047 0.3872587 -24.48865423 0.76165504 -20.1875 3.828125 C-17.9375 6.703125 -17.9375 6.703125 -18.02734375 9.671875 C-19.00751891 15.0396348 -21.21630979 20.04108108 -23.25 25.078125 C-23.64123047 26.068125 -24.03246094 27.058125 -24.43554688 28.078125 C-26.79802164 34.01761379 -29.28911266 39.88559488 -31.9375 45.703125 C-30.81730469 45.1978125 -29.69710937 44.6925 -28.54296875 44.171875 C-27.07044202 43.51533442 -25.59777861 42.85910034 -24.125 42.203125 C-23.38701172 41.86925781 -22.64902344 41.53539062 -21.88867188 41.19140625 C-20.82036133 40.71767578 -20.82036133 40.71767578 -19.73046875 40.234375 C-19.0758667 39.94111328 -18.42126465 39.64785156 -17.74682617 39.34570312 C-15.9375 38.703125 -15.9375 38.703125 -12.9375 38.703125 C-13.28748047 37.55263672 -13.28748047 37.55263672 -13.64453125 36.37890625 C-14.06701853 31.07809921 -12.35276549 26.86003948 -10.625 21.890625 C-9.97923967 19.98957905 -9.33726241 18.08724351 -8.69921875 16.18359375 C-8.39032715 15.26626465 -8.08143555 14.34893555 -7.76318359 13.40380859 C-6.76220537 10.12976333 -6.09624594 6.84928704 -5.53833008 3.47387695 C-4.58763475 0.67201054 -2.93291429 -0.44939816 0 0 Z " fill="#060606" transform="translate(197.9375,141.296875)"/>
<path d="M0 0 C0.63679688 0.46148437 1.27359375 0.92296875 1.9296875 1.3984375 C3.19425781 2.30722656 3.19425781 2.30722656 4.484375 3.234375 C9.97122986 7.38529998 14.11220238 10.53655231 15.30078125 17.60546875 C15.93460193 25.81926741 12.40867048 32.2522523 7.21875 38.4375 C5.52052674 40.18182886 3.76261338 41.79716744 1.9296875 43.3984375 C1.16591797 44.12933594 1.16591797 44.12933594 0.38671875 44.875 C-6.51597326 51.2493378 -16.1420494 58.57202195 -25.6953125 58.4609375 C-26.69820313 58.45191406 -27.70109375 58.44289062 -28.734375 58.43359375 C-29.50523437 58.42199219 -30.27609375 58.41039062 -31.0703125 58.3984375 C-32.56210634 62.0809524 -34.03643814 65.77022155 -35.5078125 69.4609375 C-35.92869141 70.49927734 -36.34957031 71.53761719 -36.78320312 72.60742188 C-38.89657113 77.93310924 -40.50890008 82.69733388 -41.0703125 88.3984375 C-42.0703125 89.3984375 -42.0703125 89.3984375 -44.6328125 89.4609375 C-45.4371875 89.4403125 -46.2415625 89.4196875 -47.0703125 89.3984375 C-47.0703125 88.7384375 -47.0703125 88.0784375 -47.0703125 87.3984375 C-48.3696875 87.12 -48.3696875 87.12 -49.6953125 86.8359375 C-53.84488878 85.06852538 -57.20205749 82.61811691 -59.0703125 78.3984375 C-57.93629666 74.46316127 -56.42434458 70.71682074 -54.828125 66.94921875 C-54.40144531 65.93537109 -53.97476562 64.92152344 -53.53515625 63.87695312 C-52.65012379 61.78564465 -51.76471428 59.69449571 -50.87890625 57.60351562 C-48.4048082 51.72288918 -46.08776702 45.81973863 -43.94140625 39.81176758 C-41.42290685 32.83436663 -38.53390916 25.9610417 -35.0703125 19.3984375 C-35.8334375 19.4603125 -36.5965625 19.5221875 -37.3828125 19.5859375 C-40.0703125 19.3984375 -40.0703125 19.3984375 -41.8203125 18.2734375 C-43.51016491 15.73865889 -43.73761859 13.39268267 -44.0703125 10.3984375 C-40.14098121 7.5917723 -36.63988756 5.88620612 -32.0703125 4.3984375 C-31.7403125 3.7384375 -31.4103125 3.0784375 -31.0703125 2.3984375 C-28.21729987 1.41873493 -25.41305096 0.56472969 -22.5078125 -0.2265625 C-21.72083984 -0.45601563 -20.93386719 -0.68546875 -20.12304688 -0.921875 C-13.1106233 -2.86431055 -6.48147612 -4.21146605 0 0 Z " fill="#060606" transform="translate(382.0703125,112.6015625)"/>
<path d="M0 0 C0.88558594 0.60457031 1.77117187 1.20914063 2.68359375 1.83203125 C4.09318359 2.79302734 4.09318359 2.79302734 5.53125 3.7734375 C15.21297526 10.76822845 15.21297526 10.76822845 17.12109375 15.64453125 C18.33625543 23.85362346 16.60113402 30.69611927 12.12109375 37.64453125 C9.68168433 40.31197242 6.96717937 42.42975917 4.12109375 44.64453125 C2.74283609 45.95360996 1.36796376 47.26626002 -0.00390625 48.58203125 C-3.77286505 51.93148855 -7.73385337 54.59908527 -12.06640625 57.14453125 C-12.6485791 57.49507568 -13.23075195 57.84562012 -13.83056641 58.20678711 C-17.67119893 60.37513284 -20.49329914 61.17832575 -24.87890625 60.64453125 C-27.25390625 59.64453125 -27.25390625 59.64453125 -28.87890625 58.64453125 C-29.25015625 59.79953125 -29.62140625 60.95453125 -30.00390625 62.14453125 C-31.05088312 65.31566312 -32.17463131 68.44455446 -33.37890625 71.55859375 C-33.77891846 72.59790039 -33.77891846 72.59790039 -34.18701172 73.65820312 C-34.72146468 75.03953881 -35.26192528 76.41856882 -35.80908203 77.79492188 C-37.47130805 82.1016466 -38.38968546 86.05062872 -38.87890625 90.64453125 C-40.85890625 90.64453125 -42.83890625 90.64453125 -44.87890625 90.64453125 C-44.87890625 89.98453125 -44.87890625 89.32453125 -44.87890625 88.64453125 C-46.17828125 88.36609375 -46.17828125 88.36609375 -47.50390625 88.08203125 C-51.91575512 86.20291043 -54.04154698 83.40755383 -56.87890625 79.64453125 C-56.5953125 79.103125 -56.31171875 78.56171875 -56.01953125 78.00390625 C-54.73468353 75.34620753 -53.67931447 72.6536035 -52.62890625 69.89453125 C-52.18933594 68.74339844 -51.74976563 67.59226562 -51.296875 66.40625 C-50.32964276 63.85052222 -49.3758989 61.29014262 -48.4296875 58.7265625 C-45.55499696 50.95323236 -42.50998857 43.31350063 -39.1953125 35.71484375 C-38.10309562 33.16741803 -37.08386702 30.62047967 -36.12890625 28.01953125 C-35.17367589 25.44040927 -34.18546399 23.05663784 -32.87890625 20.64453125 C-33.62140625 20.74765625 -34.36390625 20.85078125 -35.12890625 20.95703125 C-37.87890625 20.64453125 -37.87890625 20.64453125 -40.25390625 18.39453125 C-41.87890625 15.64453125 -41.87890625 15.64453125 -41.94140625 13.58203125 C-40.36541454 10.70816402 -38.6504832 9.39182976 -35.87890625 7.64453125 C-32.06640625 6.89453125 -32.06640625 6.89453125 -28.87890625 6.64453125 C-28.54890625 5.65453125 -28.21890625 4.66453125 -27.87890625 3.64453125 C-26.22412109 2.8449707 -26.22412109 2.8449707 -24.08984375 2.2578125 C-22.92388672 1.93393555 -22.92388672 1.93393555 -21.734375 1.60351562 C-20.91582031 1.39017578 -20.09726562 1.17683594 -19.25390625 0.95703125 C-18.45855469 0.73208984 -17.66320312 0.50714844 -16.84375 0.27539062 C-11.03059314 -1.29482991 -5.68237668 -2.67542023 0 0 Z " fill="#060606" transform="translate(317.87890625,121.35546875)"/>
<path d="M0 0 C3.25 1.875 3.25 1.875 5 4 C5 4.66 5 5.32 5 6 C5.87398437 6.33257812 5.87398437 6.33257812 6.765625 6.671875 C9.6880441 8.40897726 10.92454844 10.39480653 12.75 13.25 C13.67039062 14.64992187 13.67039062 14.64992187 14.609375 16.078125 C16.20044783 19.42116567 16.48346873 21.34224161 16 25 C12.82999652 31.20749878 8.10655346 35.0555449 1.91796875 38.02734375 C-0.16699218 38.95977343 -0.16699218 38.95977343 -2 41 C-4.625 40.625 -4.625 40.625 -7 40 C-8.50469516 36.08779259 -7.58843502 33.79843158 -6 30 C-4.07182842 26.29197772 -2.05811342 22.63729478 0 19 C-5.24502973 20.15134799 -7.78812441 22.47919915 -11.33203125 26.265625 C-13 28 -13 28 -15.75 30.125 C-18.24880547 32.20733789 -19.57980498 34.08486285 -21 37 C-21 37.99 -21 38.98 -21 40 C-17.75461811 43.07895205 -14.33951939 45.43246038 -10.5625 47.8125 C-5.1767132 51.33012048 -0.07450085 55.77649745 2 62 C2.52279774 66.49948874 2.47902276 70.00203593 0.5 74.125 C-6.37776169 82.03442594 -14.43536503 88.25322411 -25 90 C-26.02480469 90.20496094 -26.02480469 90.20496094 -27.0703125 90.4140625 C-32.59367407 90.98109962 -35.43197834 89.36514792 -39.75 85.9375 C-49.65161141 77.07743257 -49.65161141 77.07743257 -50.375 70.6875 C-50 68 -50 68 -49 66 C-48.34 66 -47.68 66 -47 66 C-45.02 69.465 -45.02 69.465 -43 73 C-34.5953696 73.53362733 -28.97983091 71.65322061 -22 67 C-20.68 67 -19.36 67 -18 67 C-17.60831374 64.14985502 -17.60831374 64.14985502 -18 61 C-19.98839722 58.93794747 -19.98839722 58.93794747 -22.6875 57.4375 C-26.65322168 54.89493802 -29.93314837 52.57799357 -33 49 C-33 48.34 -33 47.68 -33 47 C-33.8971875 46.7215625 -33.8971875 46.7215625 -34.8125 46.4375 C-37.992299 44.3479178 -39.02085323 41.54494013 -40 38 C-40.36348132 33.7109204 -40.35050868 30.67266981 -38 27 C-37.34 27 -36.68 27 -36 27 C-35.67 26.01 -35.34 25.02 -35 24 C-34.03154089 22.96942397 -33.02620788 21.97308653 -32 21 C-30.19187376 18.89387523 -28.40376402 16.77223447 -26.62109375 14.64453125 C-25.81865234 13.83048828 -25.81865234 13.83048828 -25 13 C-24.34 13 -23.68 13 -23 13 C-22.91621094 12.25234375 -22.83242187 11.5046875 -22.74609375 10.734375 C-21.84320915 7.42537385 -20.68985015 6.39749054 -18.0625 4.25 C-17.35222656 3.65703125 -16.64195313 3.0640625 -15.91015625 2.453125 C-11.19139306 -1.13660896 -5.71002914 -0.57024259 0 0 Z " fill="#080808" transform="translate(130,151)"/>
<path d="M0 0 C1.00289063 0.10183594 2.00578125 0.20367187 3.0390625 0.30859375 C3.80992187 0.39238281 4.58078125 0.47617188 5.375 0.5625 C7.390625 5.3046875 7.390625 5.3046875 7.25 7.625 C6.10094959 10.16932592 4.35734385 11.60358918 2.375 13.5625 C-3.64620279 20.48212159 -8.18501228 28.27571552 -12.75 36.1875 C-14.12326745 38.55723544 -15.50129743 40.9241267 -16.8828125 43.2890625 C-17.52984131 44.39733398 -18.17687012 45.50560547 -18.84350586 46.64746094 C-20.24355789 48.93835052 -21.6695123 51.01440489 -23.32421875 53.1171875 C-26.834264 57.84461489 -28.42001688 63.54947421 -30.3125 69.0625 C-30.70244141 70.16464844 -31.09238281 71.26679688 -31.49414062 72.40234375 C-33.37168004 77.74931923 -35.15442681 83.0891367 -36.625 88.5625 C-39.265 88.2325 -41.905 87.9025 -44.625 87.5625 C-44.955 86.5725 -45.285 85.5825 -45.625 84.5625 C-46.40875 84.418125 -47.1925 84.27375 -48 84.125 C-50.625 83.5625 -50.625 83.5625 -52.625 82.5625 C-53.80450882 78.78486727 -53.53675515 76.22813447 -52.41015625 72.48046875 C-51.99926758 71.08344727 -51.99926758 71.08344727 -51.58007812 69.65820312 C-51.28552734 68.69849609 -50.99097656 67.73878906 -50.6875 66.75 C-50.39681641 65.77095703 -50.10613281 64.79191406 -49.80664062 63.78320312 C-49.08948442 61.37308802 -48.36201258 58.96660265 -47.625 56.5625 C-48.615 56.2325 -49.605 55.9025 -50.625 55.5625 C-51.875 52.625 -51.875 52.625 -52.625 49.5625 C-52.295 48.9025 -51.965 48.2425 -51.625 47.5625 C-51.32814372 44.96365652 -51.080615 42.37958374 -50.87109375 39.7734375 C-50.80592056 38.99618317 -50.74074738 38.21892883 -50.67359924 37.41812134 C-50.53633465 35.76898488 -50.40113309 34.11967562 -50.26782227 32.47021484 C-50.06496682 29.96792901 -49.85429335 27.46639372 -49.64257812 24.96484375 C-49.50994347 23.35941402 -49.37776781 21.7539463 -49.24609375 20.1484375 C-49.18360947 19.40854584 -49.12112518 18.66865417 -49.05674744 17.90634155 C-48.7684377 14.28595594 -48.6376194 10.78189618 -48.77368164 7.15087891 C-48.70008423 5.37463135 -48.70008423 5.37463135 -48.625 3.5625 C-44.57337085 0.8614139 -42.00358663 1.4949766 -37.296875 2.01171875 C-33.87209819 2.71770344 -31.96731558 3.98595286 -29.625 6.5625 C-26.01303867 13.78642266 -28.9345196 24.47691645 -30.55761719 32.09228516 C-31.31186678 35.64944091 -31.79295213 38.92353713 -31.625 42.5625 C-31.10292969 41.61632812 -30.58085937 40.67015625 -30.04296875 39.6953125 C-25.37247089 31.28604936 -20.53378637 23.01208186 -15.43237305 14.85595703 C-13.24620103 11.3347519 -11.22492072 7.82997682 -9.42578125 4.09375 C-6.80200143 -1.05136271 -5.37855517 -0.56287205 0 0 Z " fill="#0C0C0C" transform="translate(449.625,101.4375)"/>
<path d="M0 0 C1.8125 0.8125 1.8125 0.8125 2.8125 2.8125 C3.33364152 14.49220114 2.65436431 24.1435083 -2.1875 34.8125 C-2.44917969 35.4115918 -2.71085937 36.01068359 -2.98046875 36.62792969 C-8.35857753 48.82601577 -15.20335483 60.04884546 -27.1875 66.8125 C-28.1775 66.4825 -29.1675 66.1525 -30.1875 65.8125 C-32.06961474 48.41339486 -21.72501223 29.45093639 -11.80078125 15.78515625 C-10.35890524 14.02208752 -8.89335536 12.56158501 -7.1875 11.0625 C-4.79177408 8.90013853 -4.79177408 8.90013853 -5.375 5.5 C-5.643125 4.613125 -5.91125 3.72625 -6.1875 2.8125 C-2.77144161 -0.23755214 -2.77144161 -0.23755214 0 0 Z " fill="#F4F4F4" transform="translate(251.1875,142.1875)"/>
<path d="M0 0 C1.65 0 3.3 0 5 0 C6.02152092 17.33748007 -0.31728378 33.40381571 -11 47 C-11.66 46.67 -12.32 46.34 -13 46 C-12.67 45.34 -12.34 44.68 -12 44 C-13.32 44.66 -14.64 45.32 -16 46 C-16.6622054 36.65554607 -15.36049875 28.02042253 -10.0625 20.10546875 C-7.81601521 16.72297744 -6.28090092 13.36633438 -4.75 9.625 C-4.481875 8.98433594 -4.21375 8.34367187 -3.9375 7.68359375 C-3.28603727 6.1247365 -2.64220328 4.56269465 -2 3 C-1.34 3 -0.68 3 0 3 C0 2.01 0 1.02 0 0 Z " fill="#F6F2F2" transform="translate(297,249)"/>
<path d="M0 0 C3 0 3 0 5 1.875 C5.66 2.57625 6.32 3.2775 7 4 C10.16240582 6.10827055 11.50657469 6.33817465 15.1875 6.625 C16.08855469 6.69976562 16.98960937 6.77453125 17.91796875 6.8515625 C18.60503906 6.90054687 19.29210937 6.94953125 20 7 C18.65845576 11.92146618 16.44511403 15.54716184 13.3125 19.5 C12.86986816 20.06807373 12.42723633 20.63614746 11.97119141 21.22143555 C8.67991545 25.3572541 5.21882284 28.7900261 1 32 C-0.48046875 30.92578125 -0.48046875 30.92578125 -2 29 C-2.36328125 25.91796875 -2.36328125 25.91796875 -2.3125 22.1875 C-2.30412109 21.53257568 -2.29574219 20.87765137 -2.28710938 20.20288086 C-2.12378868 13.38342522 -1.15950861 6.71893829 0 0 Z " fill="#F7F2F2" transform="translate(214,291)"/>
<path d="M0 0 C0.90105469 0.01804688 1.80210937 0.03609375 2.73046875 0.0546875 C3.41753906 0.07789063 4.10460937 0.10109375 4.8125 0.125 C6.0625 7.75 6.0625 7.75 3.8125 11.125 C2.8225 11.125 1.8325 11.125 0.8125 11.125 C0.73 11.66125 0.6475 12.1975 0.5625 12.75 C-0.47104788 16.02290163 -2.09703611 18.41969379 -4.1875 21.125 C-5.1775 21.125 -6.1675 21.125 -7.1875 21.125 C-7.435 21.723125 -7.6825 22.32125 -7.9375 22.9375 C-10.56087621 27.52840837 -14.34306328 28.57636859 -19.1875 30.125 C-18.92533691 29.56103516 -18.66317383 28.99707031 -18.39306641 28.41601562 C-17.19232386 25.82228426 -16.00237058 23.22373574 -14.8125 20.625 C-14.4 19.738125 -13.9875 18.85125 -13.5625 17.9375 C-11.70059176 13.85331417 -10.04560014 9.98872671 -9.0859375 5.59375 C-7.67788531 0.15744415 -5.1093846 -0.13271129 0 0 Z " fill="#E6E6E6" transform="translate(315.1875,132.875)"/>
<path d="M0 0 C0.99773437 0.02320312 1.99546875 0.04640625 3.0234375 0.0703125 C4.52777344 0.09738281 4.52777344 0.09738281 6.0625 0.125 C6.83335937 0.14820312 7.60421875 0.17140625 8.3984375 0.1953125 C8.4254418 1.65354462 8.44483537 3.11191925 8.4609375 4.5703125 C8.47253906 5.38242188 8.48414063 6.19453125 8.49609375 7.03125 C8.3984375 9.1953125 8.3984375 9.1953125 7.3984375 11.1953125 C6.4084375 11.1953125 5.4184375 11.1953125 4.3984375 11.1953125 C3.7384375 12.8453125 3.0784375 14.4953125 2.3984375 16.1953125 C1.7384375 16.1953125 1.0784375 16.1953125 0.3984375 16.1953125 C0.0684375 17.5153125 -0.2615625 18.8353125 -0.6015625 20.1953125 C-1.5915625 20.1953125 -2.5815625 20.1953125 -3.6015625 20.1953125 C-3.6840625 20.7934375 -3.7665625 21.3915625 -3.8515625 22.0078125 C-4.85398806 24.93155372 -5.96304576 25.59831553 -8.6015625 27.1953125 C-10.91068029 28.27554357 -13.23566085 29.23985222 -15.6015625 30.1953125 C-13.94708163 24.82652209 -11.62889328 19.87957436 -9.16796875 14.84960938 C-7.66667422 11.71493217 -6.39976936 8.71252868 -5.5078125 5.34765625 C-4.43694996 1.62271631 -3.97560772 0.29846905 0 0 Z " fill="#EAEAEA" transform="translate(373.6015625,122.8046875)"/>
<path d="M0 0 C0.66 0 1.32 0 2 0 C2 1.65 2 3.3 2 5 C2.66 5 3.32 5 4 5 C4 5.66 4 6.32 4 7 C3.34 7 2.68 7 2 7 C2.20625 7.78375 2.4125 8.5675 2.625 9.375 C3.41649483 17.02611673 1.16067438 25.4998717 -3 32 C-4.485 32.495 -4.485 32.495 -6 33 C-6 31.35 -6 29.7 -6 28 C-7.65 29.65 -9.3 31.3 -11 33 C-9 26.33333333 -7 19.66666667 -5 13 C-4.01 13.33 -3.02 13.66 -2 14 C-2 14.66 -2 15.32 -2 16 C-1.34 16 -0.68 16 0 16 C0 10.72 0 5.44 0 0 Z " fill="#FD6666" transform="translate(309,251)"/>
<path d="M0 0 C0.625 1.8125 0.625 1.8125 1 4 C0.01 5.485 0.01 5.485 -1 7 C-1.75251895 9.62793728 -2.41087872 12.21022714 -3 14.875 C-3.17370117 15.65278809 -3.34740234 16.43057617 -3.52636719 17.23193359 C-5.5260564 26.72576766 -6.2759376 36.33948325 -7 46 C-7.66 46 -8.32 46 -9 46 C-13.62705801 36.74588397 -8.3439384 21.269656 -5.3359375 11.94042969 C-1.79727194 1.79727194 -1.79727194 1.79727194 0 0 Z " fill="#F5DEDE" transform="translate(207,270)"/>
<path d="M0 0 C0.66 0 1.32 0 2 0 C5.43983152 10.31949457 2.00937364 23.40154335 -2.37890625 33.0234375 C-3.51579654 35.07696583 -4.68360317 37.05777517 -6 39 C-7.22018516 35.24117458 -6.50806557 33.43729052 -4.83203125 29.86328125 C-1.67137122 22.78518343 -0.85356838 15.31996754 -0.4375 7.6875 C-0.37272461 6.57665039 -0.37272461 6.57665039 -0.30664062 5.44335938 C-0.20129568 3.62908536 -0.10021684 1.8145645 0 0 Z " fill="#D8D8D8" transform="translate(261,145)"/>
<path d="M0 0 C0.66 0 1.32 0 2 0 C1.9278125 0.83144531 1.855625 1.66289062 1.78125 2.51953125 C1.6884375 3.60621094 1.595625 4.69289062 1.5 5.8125 C1.4071875 6.89144531 1.314375 7.97039062 1.21875 9.08203125 C0.96262162 12.01090811 0.96262162 12.01090811 1 15 C0.01 15.33 -0.98 15.66 -2 16 C-2.9454294 17.83574993 -2.9454294 17.83574993 -3.5625 20 C-4.25390625 22.1875 -4.25390625 22.1875 -5 24 C-5.66 24.33 -6.32 24.66 -7 25 C-6.67 23.35 -6.34 21.7 -6 20 C-6.99 20.33 -7.98 20.66 -9 21 C-8.57388649 19.24719267 -8.13360733 17.49782565 -7.6875 15.75 C-7.44386719 14.77546875 -7.20023438 13.8009375 -6.94921875 12.796875 C-5.99478552 9.98463552 -5.01145917 8.1717554 -3 6 C-2.34 6 -1.68 6 -1 6 C-0.67 4.02 -0.34 2.04 0 0 Z " fill="#434343" transform="translate(257,158)"/>
<path d="M0 0 C0.66 0 1.32 0 2 0 C2 1.65 2 3.3 2 5 C2.66 5 3.32 5 4 5 C4 5.66 4 6.32 4 7 C3.34 7 2.68 7 2 7 C2.20625 7.78375 2.4125 8.5675 2.625 9.375 C3.41649483 17.02611673 1.16067438 25.4998717 -3 32 C-4.485 32.495 -4.485 32.495 -6 33 C-5.56442084 31.52026655 -5.12639904 30.04125215 -4.6875 28.5625 C-4.41679687 27.64082031 -4.14609375 26.71914063 -3.8671875 25.76953125 C-3 23 -3 23 -2.1328125 20.82421875 C0.57925305 13.96656728 0.28004572 7.29156066 0 0 Z " fill="#F3D8D8" transform="translate(309,251)"/>
<path d="M0 0 C0.99 0.33 1.98 0.66 3 1 C2.69181644 2.31352023 2.37832335 3.62579572 2.0625 4.9375 C1.88847656 5.66839844 1.71445312 6.39929688 1.53515625 7.15234375 C1 9 1 9 0 10 C-0.455954 11.43175363 -0.89004987 12.87050541 -1.3125 14.3125 C-2.53762957 18.12131866 -3.79375146 20.45711323 -7 23 C-8 21 -8 21 -7.37915039 18.84521484 C-7.03875732 17.97590332 -6.69836426 17.1065918 -6.34765625 16.2109375 C-5.98349609 15.26992187 -5.61933594 14.32890625 -5.24414062 13.359375 C-4.85419922 12.37453125 -4.46425781 11.3896875 -4.0625 10.375 C-3.48338867 8.88613281 -3.48338867 8.88613281 -2.89257812 7.3671875 C-1.93518863 4.90870583 -0.97074241 2.45323318 0 0 Z " fill="#A3A3A3" transform="translate(276,174)"/>
<path d="M0 0 C1.17037635 3.51112904 0.86295634 3.8866582 -0.6875 7.0625 C-2.70892509 11.30749269 -4.38220655 15.60802507 -5.97265625 20.03125 C-7 22 -7 22 -10 23 C-11.20882096 25.00016466 -11.20882096 25.00016466 -12 27 C-12 23.65077976 -11.26027128 21.99377781 -9.8828125 18.96484375 C-9.44066406 17.99095703 -8.99851563 17.01707031 -8.54296875 16.01367188 C-8.07503906 14.99853516 -7.60710937 13.98339844 -7.125 12.9375 C-6.43470703 11.40899414 -6.43470703 11.40899414 -5.73046875 9.84960938 C-2.26013049 2.26013049 -2.26013049 2.26013049 0 0 Z " fill="#F1D8D8" transform="translate(250,287)"/>
<path d="M0 0 C0.66 0 1.32 0 2 0 C-0.71291363 10.46684406 -0.71291363 10.46684406 -2.5625 15.0625 C-4.34424632 19.57313147 -5.17028969 24.23648668 -6 29 C-6.66 29 -7.32 29 -8 29 C-7.65966232 22.76047582 -6.31226293 17.09541086 -4.5625 11.125 C-4.2363269 10.00073608 -4.2363269 10.00073608 -3.90356445 8.85375977 C-2.90259304 5.52809712 -1.93924863 2.90887295 0 0 Z " fill="#C4C4C4" transform="translate(216,173)"/>
<path d="M0 0 C0.99 0.33 1.98 0.66 3 1 C2 4 2 4 0 5 C-0.35409439 6.9945441 -0.35409439 6.9945441 -0.4375 9.3125 C-0.7655526 13.14585534 -1.40852928 15.07051136 -4 18 C-4 18.99 -4 19.98 -4 21 C-5.32 21.33 -6.64 21.66 -8 22 C-5.92957946 14.39162534 -3.14169523 7.2271408 0 0 Z " fill="#A3A3A3" transform="translate(338,164)"/>
<path d="M0 0 C1.65 0 3.3 0 5 0 C4.74412595 1.77305664 4.46972261 3.54344608 4.1875 5.3125 C4.03667969 6.29863281 3.88585937 7.28476563 3.73046875 8.30078125 C2.96563295 11.12699269 2.24741238 12.1959128 0 14 C-2.05459372 8.40693931 -2.05459372 5.59306069 0 0 Z " fill="#6F6F6F" transform="translate(186,167)"/>
<path d="M0 0 C1.28617662 3.85852985 0.42756222 4.95914031 -1.1875 8.625 C-1.64898437 9.68460938 -2.11046875 10.74421875 -2.5859375 11.8359375 C-3.05257813 12.88007813 -3.51921875 13.92421875 -4 15 C-4.40476562 15.92039063 -4.80953125 16.84078125 -5.2265625 17.7890625 C-6.14199757 19.86360961 -7.06601516 21.9337542 -8 24 C-9.20464193 20.55683783 -8.82141328 18.79886736 -7.3828125 15.48828125 C-7.02316406 14.64845703 -6.66351563 13.80863281 -6.29296875 12.94335938 C-5.90753906 12.07517578 -5.52210938 11.20699219 -5.125 10.3125 C-4.74730469 9.43271484 -4.36960937 8.55292969 -3.98046875 7.64648438 C-1.17733844 1.17733844 -1.17733844 1.17733844 0 0 Z " fill="#C4C4C4" transform="translate(283,177)"/>
<path d="M0 0 C0.66 0 1.32 0 2 0 C0.26718538 5.3808454 -1.58836113 10.70253268 -3.5625 16 C-4.18318359 17.670625 -4.18318359 17.670625 -4.81640625 19.375 C-6 22 -6 22 -8 23 C-7.38696372 17.59491957 -5.55619307 13.07560955 -3.4375 8.125 C-3.10814453 7.34125 -2.77878906 6.5575 -2.43945312 5.75 C-1.63203214 3.83091244 -0.81680231 1.9151135 0 0 Z " fill="#C9C9C9" transform="translate(344,167)"/>
<path d="M0 0 C0 4.95 0 9.9 0 15 C-0.66 15 -1.32 15 -2 15 C-3.38226016 12.23547967 -3.09525387 9.9538637 -3.0625 6.875 C-3.05347656 5.77929688 -3.04445312 4.68359375 -3.03515625 3.5546875 C-3.02355469 2.71164062 -3.01195312 1.86859375 -3 1 C-1 0 -1 0 0 0 Z " fill="#F6D6D6" transform="translate(200,301)"/>
<path d="M0 0 C0.66 0 1.32 0 2 0 C1.67 5.61 1.34 11.22 1 17 C0.01 17.33 -0.98 17.66 -2 18 C-2.27560214 11.79895188 -1.22899346 6.06815522 0 0 Z " fill="#C2C2C2" transform="translate(407,129)"/>
<path d="M0 0 C0.66 0 1.32 0 2 0 C2 0.66 2 1.32 2 2 C2.66 2.33 3.32 2.66 4 3 C2.68 5.97 1.36 8.94 0 12 C-0.99 11.67 -1.98 11.34 -3 11 C-3 6.97353778 -1.79493901 3.58987802 0 0 Z " fill="#DCDCDC" transform="translate(147,184)"/>
<path d="M0 0 C0.47618831 4.65133934 -0.92584851 6.99723976 -3.5 10.8125 C-4.47453125 12.27623047 -4.47453125 12.27623047 -5.46875 13.76953125 C-5.9740625 14.50558594 -6.479375 15.24164063 -7 16 C-7.33 15.34 -7.66 14.68 -8 14 C-7.00390625 11.8359375 -7.00390625 11.8359375 -5.5625 9.375 C-5.08941406 8.55773437 -4.61632812 7.74046875 -4.12890625 6.8984375 C-3.75636719 6.27195313 -3.38382812 5.64546875 -3 5 C-3.33 5.33 -3.66 5.66 -4 6 C-4.66 5.67 -5.32 5.34 -6 5 C-1.125 0 -1.125 0 0 0 Z " fill="#929292" transform="translate(105,171)"/>
<path d="M0 0 C0.99 0.33 1.98 0.66 3 1 C2.69181644 2.31352023 2.37832335 3.62579572 2.0625 4.9375 C1.88847656 5.66839844 1.71445312 6.39929688 1.53515625 7.15234375 C1 9 1 9 0 10 C-0.99 10.495 -0.99 10.495 -2 11 C-2.33 11.66 -2.66 12.32 -3 13 C-2.52060632 8.28596212 -2.03165952 4.33420699 0 0 Z " fill="#878787" transform="translate(276,174)"/>
<path d="M0 0 C0.66 0 1.32 0 2 0 C1.26374506 5.74278856 0.21222474 12.78777526 -4 17 C-3.35729017 11.0870696 -1.80996216 5.65755469 0 0 Z " fill="#B9B9B9" transform="translate(408,163)"/>
<path d="M0 0 C0.99 0.33 1.98 0.66 3 1 C3 1.66 3 2.32 3 3 C2.34 3 1.68 3 1 3 C1.0825 3.845625 1.165 4.69125 1.25 5.5625 C0.92462977 10.03634062 -0.59932129 12.24893952 -3 16 C-4.31225809 12.06322574 -3.3393954 10.2205738 -2.0625 6.3125 C-1.68222656 5.13300781 -1.30195313 3.95351563 -0.91015625 2.73828125 C-0.60980469 1.83464844 -0.30945313 0.93101562 0 0 Z " fill="#F7D1D1" transform="translate(304,264)"/>
<path d="M0 0 C2.475 0.495 2.475 0.495 5 1 C4.56179109 5.55737263 4.14958831 8.57653445 1 12 C0.875 5.25 0.875 5.25 2 3 C1.34 3 0.68 3 0 3 C0 2.01 0 1.02 0 0 Z " fill="#DBDBDB" transform="translate(138,206)"/>
<path d="M0 0 C0.66 0 1.32 0 2 0 C1.50269348 4.97306516 0.44697666 8.63799813 -2 13 C-2.33 13 -2.66 13 -3 13 C-2.88557539 11.39504433 -2.75805306 9.79101881 -2.625 8.1875 C-2.55539063 7.29417969 -2.48578125 6.40085938 -2.4140625 5.48046875 C-2 3 -2 3 0 0 Z " fill="#C4C4C4" transform="translate(180,199)"/>
<path d="M0 0 C0.66 0 1.32 0 2 0 C1.54857225 1.77260631 1.08859477 3.5430368 0.625 5.3125 C0.36976563 6.29863281 0.11453125 7.28476563 -0.1484375 8.30078125 C-1 11 -1 11 -3 14 C-4.07010304 11.23556715 -4.16283213 9.46148633 -3.17578125 6.6640625 C-2.16488321 4.41525773 -1.11596524 2.19840363 0 0 Z " fill="#A7A7A7" transform="translate(216,173)"/>
<path d="M0 0 C0.66 0.66 1.32 1.32 2 2 C1.7578125 4.3828125 1.7578125 4.3828125 1.125 7.125 C0.92132813 8.03507813 0.71765625 8.94515625 0.5078125 9.8828125 C0.34023437 10.58148438 0.17265625 11.28015625 0 12 C-0.33 11.01 -0.66 10.02 -1 9 C-1.99 8.67 -2.98 8.34 -4 8 C-3.34 6.35 -2.68 4.7 -2 3 C-1.34 3 -0.68 3 0 3 C0 2.01 0 1.02 0 0 Z " fill="#545454" transform="translate(177,200)"/>
<path d="M0 0 C0.66 0 1.32 0 2 0 C3.04976964 3.14930893 3.10131595 5.38814456 3.0625 8.6875 C3.05347656 9.68136719 3.04445313 10.67523438 3.03515625 11.69921875 C3.02355469 12.45847656 3.01195312 13.21773437 3 14 C0.19954377 10.85408067 -0.35261589 8.932936 -0.1875 4.75 C-0.16042969 3.85796875 -0.13335937 2.9659375 -0.10546875 2.046875 C-0.07066406 1.37140625 -0.03585937 0.6959375 0 0 Z " fill="#BEBEBE" transform="translate(261,145)"/>
<path d="M0 0 C0.66 0 1.32 0 2 0 C2 0.66 2 1.32 2 2 C2.66 2.33 3.32 2.66 4 3 C3.01 3.66 2.02 4.32 1 5 C-0.19232613 7.05003955 -0.19232613 7.05003955 -1 9 C-1.66 8.34 -2.32 7.68 -3 7 C-1.125 2.25 -1.125 2.25 0 0 Z " fill="#7B7B7B" transform="translate(147,184)"/>
<path d="M0 0 C0.33 1.32 0.66 2.64 1 4 C-0.98 5.32 -2.96 6.64 -5 8 C-5 5 -5 5 -2.5 2.3125 C-1.675 1.549375 -0.85 0.78625 0 0 Z " fill="#A7A7A7" transform="translate(106,160)"/>
<path d="M0 0 C0.33 0.99 0.66 1.98 1 3 C0.34 3.66 -0.32 4.32 -1 5 C-1.66 5 -2.32 5 -3 5 C-3 4.01 -3 3.02 -3 2 C-2.01 1.34 -1.02 0.68 0 0 Z M-6 6 C-5.34 6.33 -4.68 6.66 -4 7 C-4.99 7.99 -5.98 8.98 -7 10 C-6.67 8.68 -6.34 7.36 -6 6 Z " fill="#FD7070" transform="translate(305,274)"/>
<path d="M0 0 C0.66 0 1.32 0 2 0 C1.01 2.97 0.02 5.94 -1 9 C-1.66 8.34 -2.32 7.68 -3 7 C-2.01 4.69 -1.02 2.38 0 0 Z " fill="#BEBEBE" transform="translate(344,167)"/>
<path d="M0 0 C0.66 0 1.32 0 2 0 C2 3.63 2 7.26 2 11 C1.34 11 0.68 11 0 11 C-0.19406478 9.35492782 -0.38007935 7.70890406 -0.5625 6.0625 C-0.66691406 5.14597656 -0.77132812 4.22945312 -0.87890625 3.28515625 C-0.91886719 2.53105469 -0.95882812 1.77695313 -1 1 C-0.67 0.67 -0.34 0.34 0 0 Z " fill="#585858" transform="translate(138,209)"/>
</svg>
